<mxfile host="Electron" modified="2024-06-23T11:50:54.362Z" agent="Mozilla/5.0 (Windows NT 10.0; Win64; x64) AppleWebKit/537.36 (KHTML, like Gecko) draw.io/24.5.3 Chrome/124.0.6367.207 Electron/30.0.6 Safari/537.36" etag="Hs-1buccVJeBvd0gDFjk" version="24.5.3" type="device">
  <diagram name="Страница 1" id="1plvhb7hx2kgDdJOEgR3">
    <mxGraphModel dx="-1228" dy="1214" grid="0" gridSize="10" guides="1" tooltips="1" connect="1" arrows="1" fold="1" page="1" pageScale="1" pageWidth="3300" pageHeight="2339" math="0" shadow="0">
      <root>
        <mxCell id="0" />
        <mxCell id="1" parent="0" />
        <mxCell id="M2fhNpQBCmosjPJaxfH--2" value="" style="group;rotation=0;movable=1;resizable=1;rotatable=1;deletable=1;editable=1;locked=0;connectable=1;fontFamily=Isocpeur;fontSource=https%3A%2F%2Ffonts.googleapis.com%2Fcss%3Ffamily%3DIsocpeur;" parent="1" vertex="1" connectable="0">
          <mxGeometry x="5826.421652421652" y="2111.436" width="743.5264324153212" height="208.564" as="geometry" />
        </mxCell>
        <mxCell id="M2fhNpQBCmosjPJaxfH--3" style="vsdxID=2;edgeStyle=none;startArrow=none;endArrow=none;startSize=5;endSize=5;strokeWidth=3;strokeColor=#000000;spacingTop=0;spacingBottom=0;spacingLeft=0;spacingRight=0;verticalAlign=middle;html=1;labelBackgroundColor=none;rounded=0;fontFamily=Times New Roman;fontSize=18;movable=1;resizable=1;rotatable=1;deletable=1;editable=1;locked=0;connectable=1;" parent="M2fhNpQBCmosjPJaxfH--2" edge="1">
          <mxGeometry as="geometry">
            <Array as="points" />
            <mxPoint x="3.9920882277332694" y="202.40388185654004" as="sourcePoint" />
            <mxPoint x="3.9920882277332694" y="12.32023628691983" as="targetPoint" />
          </mxGeometry>
        </mxCell>
        <mxCell id="M2fhNpQBCmosjPJaxfH--4" style="vsdxID=3;edgeStyle=none;startArrow=none;endArrow=none;startSize=5;endSize=5;strokeWidth=3;strokeColor=#000000;spacingTop=0;spacingBottom=0;spacingLeft=0;spacingRight=0;verticalAlign=middle;html=1;labelBackgroundColor=none;rounded=0;fontFamily=Times New Roman;fontSize=18;movable=1;resizable=1;rotatable=1;deletable=1;editable=1;locked=0;connectable=1;" parent="M2fhNpQBCmosjPJaxfH--2" edge="1">
          <mxGeometry as="geometry">
            <mxPoint as="offset" />
            <Array as="points" />
            <mxPoint x="3.9920882277332694" y="12.32023628691983" as="sourcePoint" />
            <mxPoint x="742.5284103583881" y="12.32023628691983" as="targetPoint" />
          </mxGeometry>
        </mxCell>
        <mxCell id="M2fhNpQBCmosjPJaxfH--5" style="vsdxID=4;edgeStyle=none;startArrow=none;endArrow=none;startSize=5;endSize=5;strokeWidth=3;strokeColor=#000000;spacingTop=0;spacingBottom=0;spacingLeft=0;spacingRight=0;verticalAlign=middle;html=1;labelBackgroundColor=none;rounded=0;fontFamily=Times New Roman;fontSize=18;movable=1;resizable=1;rotatable=1;deletable=1;editable=1;locked=0;connectable=1;" parent="M2fhNpQBCmosjPJaxfH--2" edge="1">
          <mxGeometry as="geometry">
            <mxPoint as="offset" />
            <Array as="points" />
            <mxPoint x="3.9920882277332694" y="65.12124894514767" as="sourcePoint" />
            <mxPoint x="742.5284103583881" y="65.12124894514767" as="targetPoint" />
          </mxGeometry>
        </mxCell>
        <mxCell id="M2fhNpQBCmosjPJaxfH--6" value="" style="vsdxID=5;edgeStyle=none;startArrow=none;endArrow=none;startSize=5;endSize=5;strokeWidth=3;strokeColor=#000000;spacingTop=0;spacingBottom=0;spacingLeft=0;spacingRight=0;verticalAlign=middle;html=1;labelBackgroundColor=none;rounded=0;align=center;fontFamily=Times New Roman;fontSize=18;movable=1;resizable=1;rotatable=1;deletable=1;editable=1;locked=0;connectable=1;" parent="M2fhNpQBCmosjPJaxfH--2" edge="1">
          <mxGeometry as="geometry">
            <mxPoint as="offset" />
            <Array as="points" />
            <mxPoint x="3.9920882277332694" y="153.12293670886075" as="sourcePoint" />
            <mxPoint x="742.5284103583881" y="153.12293670886075" as="targetPoint" />
          </mxGeometry>
        </mxCell>
        <mxCell id="M2fhNpQBCmosjPJaxfH--7" style="vsdxID=6;edgeStyle=none;startArrow=none;endArrow=none;startSize=5;endSize=5;strokeWidth=3;strokeColor=#000000;spacingTop=0;spacingBottom=0;spacingLeft=0;spacingRight=0;verticalAlign=middle;html=1;labelBackgroundColor=none;rounded=0;fontFamily=Times New Roman;fontSize=18;movable=1;resizable=1;rotatable=1;deletable=1;editable=1;locked=0;connectable=1;" parent="M2fhNpQBCmosjPJaxfH--2" edge="1">
          <mxGeometry as="geometry">
            <Array as="points" />
            <mxPoint x="71.85758809919884" y="202.40388185654004" as="sourcePoint" />
            <mxPoint x="71.85758809919884" y="12.32023628691983" as="targetPoint" />
          </mxGeometry>
        </mxCell>
        <mxCell id="M2fhNpQBCmosjPJaxfH--8" style="vsdxID=7;edgeStyle=none;startArrow=none;endArrow=none;startSize=5;endSize=5;strokeWidth=3;strokeColor=#000000;spacingTop=0;spacingBottom=0;spacingLeft=0;spacingRight=0;verticalAlign=middle;html=1;labelBackgroundColor=none;rounded=0;fontFamily=Times New Roman;fontSize=18;movable=1;resizable=1;rotatable=1;deletable=1;editable=1;locked=0;connectable=1;" parent="M2fhNpQBCmosjPJaxfH--2" edge="1">
          <mxGeometry as="geometry">
            <Array as="points" />
            <mxPoint x="163.67561733706404" y="202.40388185654004" as="sourcePoint" />
            <mxPoint x="163.67561733706404" y="12.32023628691983" as="targetPoint" />
          </mxGeometry>
        </mxCell>
        <mxCell id="M2fhNpQBCmosjPJaxfH--9" style="vsdxID=8;edgeStyle=none;startArrow=none;endArrow=none;startSize=5;endSize=5;strokeWidth=3;strokeColor=#000000;spacingTop=0;spacingBottom=0;spacingLeft=0;spacingRight=0;verticalAlign=middle;html=1;labelBackgroundColor=none;rounded=0;fontFamily=Times New Roman;fontSize=18;movable=1;resizable=1;rotatable=1;deletable=1;editable=1;locked=0;connectable=1;" parent="M2fhNpQBCmosjPJaxfH--2" edge="1">
          <mxGeometry as="geometry">
            <Array as="points" />
            <mxPoint x="223.5569407530631" y="202.40388185654004" as="sourcePoint" />
            <mxPoint x="223.5569407530631" y="12.32023628691983" as="targetPoint" />
          </mxGeometry>
        </mxCell>
        <mxCell id="M2fhNpQBCmosjPJaxfH--10" style="vsdxID=9;edgeStyle=none;startArrow=none;endArrow=none;startSize=5;endSize=5;strokeWidth=3;strokeColor=#000000;spacingTop=0;spacingBottom=0;spacingLeft=0;spacingRight=0;verticalAlign=middle;html=1;labelBackgroundColor=none;rounded=0;fontFamily=Times New Roman;fontSize=18;movable=1;resizable=1;rotatable=1;deletable=1;editable=1;locked=0;connectable=1;" parent="M2fhNpQBCmosjPJaxfH--2" edge="1">
          <mxGeometry as="geometry">
            <Array as="points" />
            <mxPoint x="263.4778230303958" y="202.40388185654004" as="sourcePoint" />
            <mxPoint x="263.4778230303958" y="12.32023628691983" as="targetPoint" />
          </mxGeometry>
        </mxCell>
        <mxCell id="M2fhNpQBCmosjPJaxfH--11" style="vsdxID=10;edgeStyle=none;startArrow=none;endArrow=none;startSize=5;endSize=5;strokeWidth=3;strokeColor=#000000;spacingTop=0;spacingBottom=0;spacingLeft=0;spacingRight=0;verticalAlign=middle;html=1;labelBackgroundColor=none;rounded=0;fontFamily=Times New Roman;fontSize=18;movable=1;resizable=1;rotatable=1;deletable=1;editable=1;locked=0;connectable=1;" parent="M2fhNpQBCmosjPJaxfH--2" edge="1">
          <mxGeometry as="geometry">
            <Array as="points" />
            <mxPoint x="542.9239989717246" y="202.40388185654004" as="sourcePoint" />
            <mxPoint x="542.9239989717246" y="65.12124894514767" as="targetPoint" />
          </mxGeometry>
        </mxCell>
        <mxCell id="M2fhNpQBCmosjPJaxfH--12" style="vsdxID=11;edgeStyle=none;startArrow=none;endArrow=none;startSize=5;endSize=5;strokeColor=#000000;spacingTop=0;spacingBottom=0;spacingLeft=0;spacingRight=0;verticalAlign=middle;html=1;labelBackgroundColor=none;rounded=0;fontFamily=Times New Roman;fontSize=18;movable=1;resizable=1;rotatable=1;deletable=1;editable=1;locked=0;connectable=1;" parent="M2fhNpQBCmosjPJaxfH--2" edge="1">
          <mxGeometry as="geometry">
            <Array as="points" />
            <mxPoint x="3.9920882277332694" y="188.32361181434595" as="sourcePoint" />
            <mxPoint x="263.4778230303958" y="188.32361181434595" as="targetPoint" />
          </mxGeometry>
        </mxCell>
        <mxCell id="M2fhNpQBCmosjPJaxfH--13" style="vsdxID=12;edgeStyle=none;startArrow=none;endArrow=none;startSize=5;endSize=5;strokeColor=#000000;spacingTop=0;spacingBottom=0;spacingLeft=0;spacingRight=0;verticalAlign=middle;html=1;labelBackgroundColor=none;rounded=0;fontFamily=Times New Roman;fontSize=18;movable=1;resizable=1;rotatable=1;deletable=1;editable=1;locked=0;connectable=1;" parent="M2fhNpQBCmosjPJaxfH--2" edge="1">
          <mxGeometry as="geometry">
            <Array as="points" />
            <mxPoint x="3.9920882277332694" y="170.72327426160336" as="sourcePoint" />
            <mxPoint x="263.4778230303958" y="170.72327426160336" as="targetPoint" />
          </mxGeometry>
        </mxCell>
        <mxCell id="M2fhNpQBCmosjPJaxfH--14" style="vsdxID=13;edgeStyle=none;startArrow=none;endArrow=none;startSize=5;endSize=5;strokeColor=#000000;spacingTop=0;spacingBottom=0;spacingLeft=0;spacingRight=0;verticalAlign=middle;html=1;labelBackgroundColor=none;rounded=0;entryX=-0.001;entryY=0.789;entryDx=0;entryDy=0;entryPerimeter=0;exitX=-0.001;exitY=0.789;exitDx=0;exitDy=0;exitPerimeter=0;fontFamily=Times New Roman;fontSize=18;movable=1;resizable=1;rotatable=1;deletable=1;editable=1;locked=0;connectable=1;" parent="M2fhNpQBCmosjPJaxfH--2" target="M2fhNpQBCmosjPJaxfH--49" edge="1">
          <mxGeometry as="geometry">
            <Array as="points" />
            <mxPoint x="4.990110284666586" y="132.88254852320674" as="sourcePoint" />
            <mxPoint x="268.46793331506234" y="133.76256540084384" as="targetPoint" />
          </mxGeometry>
        </mxCell>
        <mxCell id="M2fhNpQBCmosjPJaxfH--15" style="vsdxID=14;edgeStyle=none;startArrow=none;endArrow=none;startSize=5;endSize=5;strokeColor=#000000;spacingTop=0;spacingBottom=0;spacingLeft=0;spacingRight=0;verticalAlign=middle;html=1;labelBackgroundColor=none;rounded=0;fontFamily=Times New Roman;fontSize=18;movable=1;resizable=1;rotatable=1;deletable=1;editable=1;locked=0;connectable=1;" parent="M2fhNpQBCmosjPJaxfH--2" edge="1">
          <mxGeometry as="geometry">
            <Array as="points" />
            <mxPoint x="3.9920882277332694" y="117.9222616033755" as="sourcePoint" />
            <mxPoint x="263.4778230303958" y="117.9222616033755" as="targetPoint" />
          </mxGeometry>
        </mxCell>
        <mxCell id="M2fhNpQBCmosjPJaxfH--16" style="vsdxID=15;edgeStyle=none;startArrow=none;endArrow=none;startSize=5;endSize=5;strokeWidth=3;strokeColor=#000000;spacingTop=0;spacingBottom=0;spacingLeft=0;spacingRight=0;verticalAlign=middle;html=1;labelBackgroundColor=none;rounded=0;fontFamily=Times New Roman;fontSize=18;movable=1;resizable=1;rotatable=1;deletable=1;editable=1;locked=0;connectable=1;" parent="M2fhNpQBCmosjPJaxfH--2" edge="1">
          <mxGeometry as="geometry">
            <Array as="points" />
            <mxPoint x="3.9920882277332694" y="100.3219240506329" as="sourcePoint" />
            <mxPoint x="263.4778230303958" y="100.3219240506329" as="targetPoint" />
          </mxGeometry>
        </mxCell>
        <mxCell id="M2fhNpQBCmosjPJaxfH--17" style="vsdxID=16;edgeStyle=none;startArrow=none;endArrow=none;startSize=5;endSize=5;strokeWidth=3;strokeColor=#000000;spacingTop=0;spacingBottom=0;spacingLeft=0;spacingRight=0;verticalAlign=middle;html=1;labelBackgroundColor=none;rounded=0;fontFamily=Times New Roman;fontSize=18;movable=1;resizable=1;rotatable=1;deletable=1;editable=1;locked=0;connectable=1;" parent="M2fhNpQBCmosjPJaxfH--2" edge="1">
          <mxGeometry as="geometry">
            <Array as="points" />
            <mxPoint x="3.9920882277332694" y="82.72158649789027" as="sourcePoint" />
            <mxPoint x="263.4778230303958" y="82.72158649789027" as="targetPoint" />
          </mxGeometry>
        </mxCell>
        <mxCell id="M2fhNpQBCmosjPJaxfH--18" style="vsdxID=17;edgeStyle=none;startArrow=none;endArrow=none;startSize=5;endSize=5;strokeColor=#000000;spacingTop=0;spacingBottom=0;spacingLeft=0;spacingRight=0;verticalAlign=middle;html=1;labelBackgroundColor=none;rounded=0;fontFamily=Times New Roman;fontSize=18;movable=1;resizable=1;rotatable=1;deletable=1;editable=1;locked=0;connectable=1;" parent="M2fhNpQBCmosjPJaxfH--2" edge="1">
          <mxGeometry as="geometry">
            <Array as="points" />
            <mxPoint x="3.9920882277332694" y="47.52091139240505" as="sourcePoint" />
            <mxPoint x="263.4778230303958" y="47.52091139240505" as="targetPoint" />
          </mxGeometry>
        </mxCell>
        <mxCell id="M2fhNpQBCmosjPJaxfH--19" style="vsdxID=18;edgeStyle=none;startArrow=none;endArrow=none;startSize=5;endSize=5;strokeColor=#000000;spacingTop=0;spacingBottom=0;spacingLeft=0;spacingRight=0;verticalAlign=middle;html=1;labelBackgroundColor=none;rounded=0;fontFamily=Times New Roman;fontSize=18;movable=1;resizable=1;rotatable=1;deletable=1;editable=1;locked=0;connectable=1;" parent="M2fhNpQBCmosjPJaxfH--2" edge="1">
          <mxGeometry as="geometry">
            <Array as="points" />
            <mxPoint x="3.9920882277332694" y="29.92057383966244" as="sourcePoint" />
            <mxPoint x="263.4778230303958" y="29.92057383966244" as="targetPoint" />
          </mxGeometry>
        </mxCell>
        <mxCell id="M2fhNpQBCmosjPJaxfH--20" style="vsdxID=19;edgeStyle=none;startArrow=none;endArrow=none;startSize=5;endSize=5;strokeWidth=3;strokeColor=#000000;spacingTop=0;spacingBottom=0;spacingLeft=0;spacingRight=0;verticalAlign=middle;html=1;labelBackgroundColor=none;rounded=0;fontFamily=Times New Roman;fontSize=18;movable=1;resizable=1;rotatable=1;deletable=1;editable=1;locked=0;connectable=1;" parent="M2fhNpQBCmosjPJaxfH--2" edge="1">
          <mxGeometry as="geometry">
            <Array as="points" />
            <mxPoint x="31.936705821866155" y="12.32023628691983" as="sourcePoint" />
            <mxPoint x="31.936705821866155" y="100.3219240506329" as="targetPoint" />
          </mxGeometry>
        </mxCell>
        <mxCell id="M2fhNpQBCmosjPJaxfH--21" style="vsdxID=20;edgeStyle=none;startArrow=none;endArrow=none;startSize=5;endSize=5;strokeWidth=3;strokeColor=#000000;spacingTop=0;spacingBottom=0;spacingLeft=0;spacingRight=0;verticalAlign=middle;html=1;labelBackgroundColor=none;rounded=0;fontFamily=Times New Roman;fontSize=18;movable=1;resizable=1;rotatable=1;deletable=1;editable=1;locked=0;connectable=1;" parent="M2fhNpQBCmosjPJaxfH--2" edge="1">
          <mxGeometry as="geometry">
            <mxPoint as="offset" />
            <Array as="points" />
            <mxPoint x="542.9239989717246" y="135.52259915611813" as="sourcePoint" />
            <mxPoint x="742.5284103583881" y="135.52259915611813" as="targetPoint" />
          </mxGeometry>
        </mxCell>
        <mxCell id="M2fhNpQBCmosjPJaxfH--22" style="vsdxID=21;edgeStyle=none;startArrow=none;endArrow=none;startSize=5;endSize=5;strokeWidth=3;strokeColor=#000000;spacingTop=0;spacingBottom=0;spacingLeft=0;spacingRight=0;verticalAlign=middle;html=1;labelBackgroundColor=none;rounded=0;fontFamily=Times New Roman;fontSize=18;movable=1;resizable=1;rotatable=1;deletable=1;editable=1;locked=0;connectable=1;" parent="M2fhNpQBCmosjPJaxfH--2" edge="1">
          <mxGeometry as="geometry">
            <mxPoint as="offset" />
            <Array as="points" />
            <mxPoint x="542.9239989717246" y="82.72158649789027" as="sourcePoint" />
            <mxPoint x="742.5284103583881" y="82.72158649789027" as="targetPoint" />
          </mxGeometry>
        </mxCell>
        <mxCell id="M2fhNpQBCmosjPJaxfH--23" style="vsdxID=22;edgeStyle=none;startArrow=none;endArrow=none;startSize=5;endSize=5;strokeColor=#000000;spacingTop=0;spacingBottom=0;spacingLeft=0;spacingRight=0;verticalAlign=middle;html=1;labelBackgroundColor=none;rounded=0;fontFamily=Times New Roman;fontSize=18;movable=1;resizable=1;rotatable=1;deletable=1;editable=1;locked=0;connectable=1;" parent="M2fhNpQBCmosjPJaxfH--2" edge="1">
          <mxGeometry as="geometry">
            <Array as="points" />
            <mxPoint x="562.8844401103909" y="82.72158649789027" as="sourcePoint" />
            <mxPoint x="562.8844401103909" y="135.52259915611813" as="targetPoint" />
          </mxGeometry>
        </mxCell>
        <mxCell id="M2fhNpQBCmosjPJaxfH--24" style="vsdxID=23;edgeStyle=none;startArrow=none;endArrow=none;startSize=5;endSize=5;strokeColor=#000000;spacingTop=0;spacingBottom=0;spacingLeft=0;spacingRight=0;verticalAlign=middle;html=1;labelBackgroundColor=none;rounded=0;fontFamily=Times New Roman;fontSize=18;movable=1;resizable=1;rotatable=1;deletable=1;editable=1;locked=0;connectable=1;" parent="M2fhNpQBCmosjPJaxfH--2" edge="1">
          <mxGeometry as="geometry">
            <Array as="points" />
            <mxPoint x="582.8448812490574" y="82.72158649789027" as="sourcePoint" />
            <mxPoint x="582.8448812490574" y="135.52259915611813" as="targetPoint" />
          </mxGeometry>
        </mxCell>
        <mxCell id="M2fhNpQBCmosjPJaxfH--25" style="vsdxID=24;edgeStyle=none;startArrow=none;endArrow=none;startSize=5;endSize=5;strokeWidth=3;strokeColor=#000000;spacingTop=0;spacingBottom=0;spacingLeft=0;spacingRight=0;verticalAlign=middle;html=1;labelBackgroundColor=none;rounded=0;fontFamily=Times New Roman;fontSize=18;movable=1;resizable=1;rotatable=1;deletable=1;editable=1;locked=0;connectable=1;" parent="M2fhNpQBCmosjPJaxfH--2" edge="1">
          <mxGeometry as="geometry">
            <Array as="points" />
            <mxPoint x="602.8053223877235" y="65.12124894514767" as="sourcePoint" />
            <mxPoint x="602.8053223877235" y="135.52259915611813" as="targetPoint" />
          </mxGeometry>
        </mxCell>
        <mxCell id="M2fhNpQBCmosjPJaxfH--26" style="vsdxID=25;edgeStyle=none;startArrow=none;endArrow=none;startSize=5;endSize=5;strokeWidth=3;strokeColor=#000000;spacingTop=0;spacingBottom=0;spacingLeft=0;spacingRight=0;verticalAlign=middle;html=1;labelBackgroundColor=none;rounded=0;fontFamily=Times New Roman;fontSize=18;movable=1;resizable=1;rotatable=1;deletable=1;editable=1;locked=0;connectable=1;" parent="M2fhNpQBCmosjPJaxfH--2" edge="1">
          <mxGeometry as="geometry">
            <Array as="points" />
            <mxPoint x="668.6747781453224" y="65.12124894514767" as="sourcePoint" />
            <mxPoint x="668.6747781453224" y="135.52259915611813" as="targetPoint" />
          </mxGeometry>
        </mxCell>
        <mxCell id="M2fhNpQBCmosjPJaxfH--27" style="vsdxID=26;edgeStyle=none;startArrow=none;endArrow=none;startSize=5;endSize=5;strokeWidth=3;strokeColor=#000000;spacingTop=0;spacingBottom=0;spacingLeft=0;spacingRight=0;verticalAlign=middle;html=1;labelBackgroundColor=none;rounded=0;fontFamily=Times New Roman;fontSize=18;movable=1;resizable=1;rotatable=1;deletable=1;editable=1;locked=0;connectable=1;" parent="M2fhNpQBCmosjPJaxfH--2" edge="1">
          <mxGeometry as="geometry">
            <Array as="points" />
            <mxPoint x="622.7657635263901" y="135.52259915611813" as="sourcePoint" />
            <mxPoint x="622.7657635263901" y="153.12293670886075" as="targetPoint" />
          </mxGeometry>
        </mxCell>
        <mxCell id="M2fhNpQBCmosjPJaxfH--28" value="&lt;p style=&quot;margin: 0px; text-indent: 0px; direction: ltr; font-size: 18px;&quot;&gt;&lt;font style=&quot;font-size: 18px; color: rgb(0, 0, 0); direction: ltr; letter-spacing: 0px; line-height: 120%; opacity: 1;&quot;&gt;&lt;i style=&quot;font-size: 18px;&quot;&gt;&lt;br style=&quot;font-size: 18px;&quot;&gt;&lt;/i&gt;&lt;/font&gt;&lt;/p&gt;" style="verticalAlign=middle;align=left;vsdxID=27;fillColor=none;gradientColor=none;strokeColor=none;labelBackgroundColor=none;rounded=0;html=1;whiteSpace=wrap;direction=east;fontFamily=Times New Roman;fontSize=18;rotation=0;movable=1;resizable=1;rotatable=1;deletable=1;editable=1;locked=0;connectable=1;" parent="M2fhNpQBCmosjPJaxfH--2" vertex="1">
          <mxGeometry x="0.9980220569333174" y="171.60329113924047" width="78.84374249773205" height="16.72032067510548" as="geometry" />
        </mxCell>
        <mxCell id="M2fhNpQBCmosjPJaxfH--29" value="&lt;p style=&quot;margin: 0px; text-indent: 0px; direction: ltr; font-size: 18px;&quot;&gt;&lt;font style=&quot;font-size: 18px; color: rgb(0, 0, 0); direction: ltr; letter-spacing: 0px; line-height: 120%; opacity: 1;&quot;&gt;&lt;i style=&quot;font-size: 18px;&quot;&gt;&lt;br style=&quot;font-size: 18px;&quot;&gt;&lt;/i&gt;&lt;/font&gt;&lt;/p&gt;" style="verticalAlign=middle;align=left;vsdxID=28;fillColor=none;gradientColor=none;strokeColor=none;labelBackgroundColor=none;rounded=0;html=1;whiteSpace=wrap;direction=east;fontFamily=Times New Roman;fontSize=18;rotation=0;movable=1;resizable=1;rotatable=1;deletable=1;editable=1;locked=0;connectable=1;" parent="M2fhNpQBCmosjPJaxfH--2" vertex="1">
          <mxGeometry x="0.9980220569333174" y="188.32361181434595" width="64.87143370066562" height="16.72032067510548" as="geometry" />
        </mxCell>
        <mxCell id="M2fhNpQBCmosjPJaxfH--30" value="&lt;p style=&quot;margin: 0px; text-indent: 0px; direction: ltr; font-size: 18px;&quot;&gt;&lt;font style=&quot;font-size: 18px; color: rgb(0, 0, 0); direction: ltr; letter-spacing: 0px; line-height: 120%; opacity: 1;&quot;&gt;&lt;i style=&quot;font-size: 18px;&quot;&gt;&lt;br style=&quot;font-size: 18px;&quot;&gt;&lt;/i&gt;&lt;/font&gt;&lt;/p&gt;" style="verticalAlign=middle;align=left;vsdxID=29;fillColor=none;gradientColor=none;strokeColor=none;labelBackgroundColor=none;rounded=0;html=1;whiteSpace=wrap;direction=east;fontFamily=Times New Roman;fontSize=18;rotation=0;movable=1;resizable=1;rotatable=1;deletable=1;editable=1;locked=0;connectable=1;" parent="M2fhNpQBCmosjPJaxfH--2" vertex="1">
          <mxGeometry y="134.64258227848103" width="75.84967632693211" height="15.840303797468353" as="geometry" />
        </mxCell>
        <mxCell id="M2fhNpQBCmosjPJaxfH--31" value="&lt;p style=&quot;margin: 0px; text-indent: 0px; direction: ltr; font-size: 18px;&quot;&gt;&lt;font style=&quot;font-size: 18px; color: rgb(0, 0, 0); direction: ltr; letter-spacing: 0px; line-height: 120%; opacity: 1;&quot;&gt;&lt;i style=&quot;font-size: 18px;&quot;&gt;Провер.&lt;br style=&quot;font-size: 18px;&quot;&gt;&lt;/i&gt;&lt;/font&gt;&lt;/p&gt;" style="verticalAlign=middle;align=left;vsdxID=30;fillColor=none;gradientColor=none;strokeColor=none;labelBackgroundColor=none;rounded=0;html=1;whiteSpace=wrap;direction=east;fontFamily=Isocpeur;fontSize=18;rotation=0;movable=1;resizable=1;rotatable=1;deletable=1;editable=1;locked=0;connectable=1;fontSource=https%3A%2F%2Ffonts.googleapis.com%2Fcss%3Ffamily%3DIsocpeur;" parent="M2fhNpQBCmosjPJaxfH--2" vertex="1">
          <mxGeometry x="4.990110284666586" y="117.9222616033755" width="68.86352192839891" height="16.72032067510548" as="geometry" />
        </mxCell>
        <mxCell id="M2fhNpQBCmosjPJaxfH--32" value="&lt;p style=&quot;margin: 0px; text-indent: 0px; direction: ltr; font-size: 18px;&quot;&gt;&lt;font style=&quot;font-size: 18px; color: rgb(0, 0, 0); direction: ltr; letter-spacing: 0px; line-height: 120%; opacity: 1;&quot;&gt;&lt;i style=&quot;font-size: 18px;&quot;&gt;Разраб.&lt;br style=&quot;font-size: 18px;&quot;&gt;&lt;/i&gt;&lt;/font&gt;&lt;/p&gt;" style="verticalAlign=middle;align=left;vsdxID=31;fillColor=none;gradientColor=none;strokeColor=none;labelBackgroundColor=none;rounded=0;html=1;whiteSpace=wrap;direction=east;fontFamily=Isocpeur;fontSize=18;rotation=0;movable=1;resizable=1;rotatable=1;deletable=1;editable=1;locked=0;connectable=1;fontSource=https%3A%2F%2Ffonts.googleapis.com%2Fcss%3Ffamily%3DIsocpeur;" parent="M2fhNpQBCmosjPJaxfH--2" vertex="1">
          <mxGeometry x="4.990110284666586" y="101.20194092827002" width="68.86352192839891" height="14.96028691983122" as="geometry" />
        </mxCell>
        <mxCell id="M2fhNpQBCmosjPJaxfH--33" value="&lt;p style=&quot;margin: 0px; text-indent: 0px; direction: ltr; font-size: 18px;&quot;&gt;&lt;font style=&quot;font-size: 18px; color: rgb(0, 0, 0); direction: ltr; letter-spacing: 0px; line-height: 120%; opacity: 1;&quot;&gt;&lt;i style=&quot;font-size: 18px;&quot;&gt;Изм&lt;br style=&quot;font-size: 18px;&quot;&gt;&lt;/i&gt;&lt;/font&gt;&lt;/p&gt;" style="verticalAlign=middle;align=center;vsdxID=32;fillColor=none;gradientColor=none;strokeColor=none;labelBackgroundColor=none;rounded=0;html=1;whiteSpace=wrap;direction=east;fontFamily=Isocpeur;fontSize=18;rotation=0;movable=1;resizable=1;rotatable=1;deletable=1;editable=1;locked=0;connectable=1;fontSource=https%3A%2F%2Ffonts.googleapis.com%2Fcss%3Ffamily%3DIsocpeur;" parent="M2fhNpQBCmosjPJaxfH--2" vertex="1">
          <mxGeometry y="83.60160337552739" width="35.92879404959942" height="14.96028691983122" as="geometry" />
        </mxCell>
        <mxCell id="M2fhNpQBCmosjPJaxfH--34" value="&lt;p style=&quot;margin: 0px; text-indent: 0px; direction: ltr; font-size: 18px;&quot;&gt;&lt;font style=&quot;font-size: 18px; color: rgb(0, 0, 0); direction: ltr; letter-spacing: 0px; line-height: 120%; opacity: 1;&quot;&gt;&lt;i style=&quot;font-size: 18px;&quot;&gt;Лист&lt;br style=&quot;font-size: 18px;&quot;&gt;&lt;/i&gt;&lt;/font&gt;&lt;/p&gt;" style="verticalAlign=middle;align=center;vsdxID=33;fillColor=none;gradientColor=none;strokeColor=none;labelBackgroundColor=none;rounded=0;html=1;whiteSpace=wrap;direction=east;fontFamily=Isocpeur;fontSize=18;rotation=0;movable=1;resizable=1;rotatable=1;deletable=1;editable=1;locked=0;connectable=1;fontSource=https%3A%2F%2Ffonts.googleapis.com%2Fcss%3Ffamily%3DIsocpeur;" parent="M2fhNpQBCmosjPJaxfH--2" vertex="1">
          <mxGeometry x="29.940661707999524" y="83.60160337552739" width="41.91692639119932" height="14.96028691983122" as="geometry" />
        </mxCell>
        <mxCell id="M2fhNpQBCmosjPJaxfH--35" value="&lt;p style=&quot;margin: 0px; text-indent: 0px; direction: ltr; font-size: 18px;&quot;&gt;&lt;font style=&quot;font-size: 18px; color: rgb(0, 0, 0); direction: ltr; letter-spacing: 0px; line-height: 120%; opacity: 1;&quot;&gt;&lt;i style=&quot;font-size: 18px;&quot;&gt;№ докум.&lt;br style=&quot;font-size: 18px;&quot;&gt;&lt;/i&gt;&lt;/font&gt;&lt;/p&gt;" style="verticalAlign=middle;align=center;vsdxID=34;fillColor=none;gradientColor=none;strokeColor=none;labelBackgroundColor=none;rounded=0;html=1;whiteSpace=wrap;direction=east;fontFamily=Isocpeur;fontSize=18;rotation=0;movable=1;resizable=1;rotatable=1;deletable=1;editable=1;locked=0;connectable=1;fontSource=https%3A%2F%2Ffonts.googleapis.com%2Fcss%3Ffamily%3DIsocpeur;" parent="M2fhNpQBCmosjPJaxfH--2" vertex="1">
          <mxGeometry x="72.85561015613217" y="83.60160337552739" width="87.82594101013188" height="14.96028691983122" as="geometry" />
        </mxCell>
        <mxCell id="M2fhNpQBCmosjPJaxfH--36" value="&lt;p style=&quot;margin: 0px; text-indent: 0px; direction: ltr; font-size: 18px;&quot;&gt;&lt;font style=&quot;font-size: 18px; color: rgb(0, 0, 0); direction: ltr; letter-spacing: 0px; line-height: 120%; opacity: 1;&quot;&gt;&lt;i style=&quot;font-size: 18px;&quot;&gt;Подп.&lt;br style=&quot;font-size: 18px;&quot;&gt;&lt;/i&gt;&lt;/font&gt;&lt;/p&gt;" style="verticalAlign=middle;align=center;vsdxID=35;fillColor=none;gradientColor=none;strokeColor=none;labelBackgroundColor=none;rounded=0;html=1;whiteSpace=wrap;direction=east;fontFamily=Isocpeur;fontSize=18;rotation=0;movable=1;resizable=1;rotatable=1;deletable=1;editable=1;locked=0;connectable=1;fontSource=https%3A%2F%2Ffonts.googleapis.com%2Fcss%3Ffamily%3DIsocpeur;" parent="M2fhNpQBCmosjPJaxfH--2" vertex="1">
          <mxGeometry x="164.67363939399732" y="83.60160337552739" width="56.88725724519908" height="14.96028691983122" as="geometry" />
        </mxCell>
        <mxCell id="M2fhNpQBCmosjPJaxfH--37" value="&lt;p style=&quot;margin: 0px ; text-indent: 0px ; direction: ltr&quot;&gt;&lt;font style=&quot;color: rgb(0 , 0 , 0) ; direction: ltr ; letter-spacing: 0px ; line-height: 120% ; opacity: 1&quot;&gt;&lt;i&gt;&lt;font style=&quot;font-size: 16px&quot;&gt;Дата&lt;/font&gt;&lt;br style=&quot;font-size: 18px&quot;&gt;&lt;/i&gt;&lt;/font&gt;&lt;/p&gt;" style="verticalAlign=middle;align=center;vsdxID=36;fillColor=none;gradientColor=none;strokeColor=none;labelBackgroundColor=none;rounded=0;html=1;whiteSpace=wrap;direction=east;fontFamily=Isocpeur;fontSize=18;rotation=0;movable=1;resizable=1;rotatable=1;deletable=1;editable=1;locked=0;connectable=1;fontSource=https%3A%2F%2Ffonts.googleapis.com%2Fcss%3Ffamily%3DIsocpeur;" parent="M2fhNpQBCmosjPJaxfH--2" vertex="1">
          <mxGeometry x="221.56089663919641" y="83.60160337552739" width="41.91692639119932" height="14.96028691983122" as="geometry" />
        </mxCell>
        <mxCell id="M2fhNpQBCmosjPJaxfH--38" value="&lt;p style=&quot;margin: 0px; text-indent: 0px; direction: ltr; font-size: 18px;&quot;&gt;&lt;font style=&quot;font-size: 18px; color: rgb(0, 0, 0); direction: ltr; letter-spacing: 0px; line-height: 120%; opacity: 1;&quot;&gt;&lt;i style=&quot;font-size: 18px;&quot;&gt;Лит.&lt;br style=&quot;font-size: 18px;&quot;&gt;&lt;/i&gt;&lt;/font&gt;&lt;/p&gt;" style="verticalAlign=middle;align=center;vsdxID=37;fillColor=none;gradientColor=none;strokeColor=none;labelBackgroundColor=none;rounded=0;html=1;whiteSpace=wrap;direction=east;fontFamily=Isocpeur;fontSize=18;rotation=0;movable=1;resizable=1;rotatable=1;deletable=1;editable=1;locked=0;connectable=1;fontSource=https%3A%2F%2Ffonts.googleapis.com%2Fcss%3Ffamily%3DIsocpeur;" parent="M2fhNpQBCmosjPJaxfH--2" vertex="1">
          <mxGeometry x="542.9239989717246" y="66.0012658227848" width="56.88725724519908" height="14.96028691983122" as="geometry" />
        </mxCell>
        <mxCell id="M2fhNpQBCmosjPJaxfH--39" value="&lt;p style=&quot;margin: 0px; text-indent: 0px; direction: ltr; font-size: 18px;&quot;&gt;&lt;font style=&quot;font-size: 18px; color: rgb(0, 0, 0); direction: ltr; letter-spacing: 0px; line-height: 120%; opacity: 1;&quot;&gt;&lt;i style=&quot;font-size: 18px;&quot;&gt;Масса&lt;br style=&quot;font-size: 18px;&quot;&gt;&lt;/i&gt;&lt;/font&gt;&lt;/p&gt;" style="verticalAlign=middle;align=center;vsdxID=38;fillColor=none;gradientColor=none;strokeColor=none;labelBackgroundColor=none;rounded=0;html=1;whiteSpace=wrap;direction=east;fontFamily=Isocpeur;fontSize=18;rotation=0;movable=1;resizable=1;rotatable=1;deletable=1;editable=1;locked=0;connectable=1;fontSource=https%3A%2F%2Ffonts.googleapis.com%2Fcss%3Ffamily%3DIsocpeur;" parent="M2fhNpQBCmosjPJaxfH--2" vertex="1">
          <mxGeometry x="603.8033444446569" y="66.0012658227848" width="62.87538958679899" height="14.96028691983122" as="geometry" />
        </mxCell>
        <mxCell id="M2fhNpQBCmosjPJaxfH--40" value="&lt;p style=&quot;margin: 0px; text-indent: 0px; direction: ltr; font-size: 18px;&quot;&gt;&lt;font style=&quot;font-size: 18px; color: rgb(0, 0, 0); direction: ltr; letter-spacing: 0px; line-height: 120%; opacity: 1;&quot;&gt;&lt;i style=&quot;font-size: 18px;&quot;&gt;Масштаб&lt;br style=&quot;font-size: 18px;&quot;&gt;&lt;/i&gt;&lt;/font&gt;&lt;/p&gt;" style="verticalAlign=middle;align=center;vsdxID=39;fillColor=none;gradientColor=none;strokeColor=none;labelBackgroundColor=none;rounded=0;html=1;whiteSpace=wrap;direction=east;fontFamily=Isocpeur;fontSize=18;rotation=0;movable=1;resizable=1;rotatable=1;deletable=1;editable=1;locked=0;connectable=1;fontSource=https%3A%2F%2Ffonts.googleapis.com%2Fcss%3Ffamily%3DIsocpeur;" parent="M2fhNpQBCmosjPJaxfH--2" vertex="1">
          <mxGeometry x="669.6728002022559" y="66.0012658227848" width="70.85956604226553" height="14.96028691983122" as="geometry" />
        </mxCell>
        <mxCell id="M2fhNpQBCmosjPJaxfH--41" value="&lt;p style=&quot;margin: 0px; text-indent: 0px; direction: ltr; font-size: 18px;&quot;&gt;&lt;font style=&quot;font-size: 18px; color: rgb(0, 0, 0); direction: ltr; letter-spacing: 0px; line-height: 120%; opacity: 1;&quot;&gt;&lt;i style=&quot;font-size: 18px;&quot;&gt;Листов 34&lt;br style=&quot;font-size: 18px;&quot;&gt;&lt;/i&gt;&lt;/font&gt;&lt;/p&gt;" style="verticalAlign=middle;align=center;vsdxID=40;fillColor=none;gradientColor=none;strokeColor=none;labelBackgroundColor=none;rounded=0;html=1;whiteSpace=wrap;direction=east;fontFamily=Isocpeur;fontSize=18;rotation=0;movable=1;resizable=1;rotatable=1;deletable=1;editable=1;locked=0;connectable=1;fontSource=https%3A%2F%2Ffonts.googleapis.com%2Fcss%3Ffamily%3DIsocpeur;" parent="M2fhNpQBCmosjPJaxfH--2" vertex="1">
          <mxGeometry x="623.7637855833232" y="136.40261603375527" width="116.76858066119809" height="14.96028691983122" as="geometry" />
        </mxCell>
        <mxCell id="M2fhNpQBCmosjPJaxfH--42" value="&lt;p style=&quot;margin: 0px; text-indent: 0px; direction: ltr; font-size: 18px;&quot;&gt;&lt;font style=&quot;font-size: 18px; color: rgb(0, 0, 0); direction: ltr; letter-spacing: 0px; line-height: 120%; opacity: 1;&quot;&gt;&lt;i style=&quot;font-size: 18px;&quot;&gt;Лист 1&lt;br style=&quot;font-size: 18px;&quot;&gt;&lt;/i&gt;&lt;/font&gt;&lt;/p&gt;" style="verticalAlign=middle;align=center;vsdxID=41;fillColor=none;gradientColor=none;strokeColor=none;labelBackgroundColor=none;rounded=0;html=1;whiteSpace=wrap;direction=east;fontFamily=Isocpeur;fontSize=18;rotation=0;movable=1;resizable=1;rotatable=1;deletable=1;editable=1;locked=0;connectable=1;fontSource=https%3A%2F%2Ffonts.googleapis.com%2Fcss%3Ffamily%3DIsocpeur;" parent="M2fhNpQBCmosjPJaxfH--2" vertex="1">
          <mxGeometry x="543.9220210286578" y="136.40261603375527" width="75.84967632693211" height="14.96028691983122" as="geometry" />
        </mxCell>
        <mxCell id="M2fhNpQBCmosjPJaxfH--43" value="&lt;p style=&quot;margin: 0px ; text-indent: 0px ; direction: ltr ; font-size: 18px&quot;&gt;&lt;font face=&quot;Isocpeur&quot;&gt;&lt;i&gt;Снарская&lt;/i&gt;&lt;/font&gt;&lt;/p&gt;" style="verticalAlign=middle;align=left;vsdxID=44;fillColor=none;gradientColor=none;shape=stencil(nZBLDoAgDERP0z3SIyjew0SURgSD+Lu9kMZoXLhwN9O+tukAlrNpJg1SzDH4QW/URgNYgZTkjA4UkwJUgGXng+6DX1zLfmoymdXo17xh5zmRJ6Q42BWCfc2oJfdAr+Yv+AP9Cb7OJ3H/2JG1HNGz/84klThPVCc=);strokeColor=none;labelBackgroundColor=none;rounded=0;html=1;whiteSpace=wrap;direction=east;fontFamily=Times New Roman;fontSize=18;rotation=0;movable=1;resizable=1;rotatable=1;deletable=1;editable=1;locked=0;connectable=1;" parent="M2fhNpQBCmosjPJaxfH--2" vertex="1">
          <mxGeometry x="74.85165426999879" y="114.40219409282697" width="137.72704385679782" height="24.64047257383966" as="geometry" />
        </mxCell>
        <mxCell id="M2fhNpQBCmosjPJaxfH--44" value="&lt;i&gt;Линник&lt;/i&gt;" style="verticalAlign=middle;align=left;vsdxID=45;fillColor=none;gradientColor=none;shape=stencil(nZBLDoAgDERP0z3SIyjew0SURgSD+Lu9kMZoXLhwN9O+tukAlrNpJg1SzDH4QW/URgNYgZTkjA4UkwJUgGXng+6DX1zLfmoymdXo17xh5zmRJ6Q42BWCfc2oJfdAr+Yv+AP9Cb7OJ3H/2JG1HNGz/84klThPVCc=);strokeColor=none;labelBackgroundColor=none;rounded=0;html=1;whiteSpace=wrap;direction=east;fontFamily=Isocpeur;fontSize=18;rotation=0;movable=1;resizable=1;rotatable=1;deletable=1;editable=1;locked=0;connectable=1;fontSource=https%3A%2F%2Ffonts.googleapis.com%2Fcss%3Ffamily%3DIsocpeur;" parent="M2fhNpQBCmosjPJaxfH--2" vertex="1">
          <mxGeometry x="74.85165426999879" y="97.68187341772148" width="85.82989689626528" height="24.64047257383966" as="geometry" />
        </mxCell>
        <mxCell id="M2fhNpQBCmosjPJaxfH--45" value="&lt;p style=&quot;margin: 17px 0px 0px ; text-indent: 0px ; direction: ltr ; font-size: 18px&quot;&gt;&lt;font style=&quot;font-size: 18px ; color: rgb(0 , 0 , 0) ; direction: ltr ; letter-spacing: 0px ; line-height: 120% ; opacity: 1&quot;&gt;&lt;font style=&quot;letter-spacing: 0px ; direction: ltr ; line-height: 21.6px ; opacity: 1&quot;&gt;&lt;i&gt;КП 2-40 01 01&lt;/i&gt;&lt;/font&gt;&lt;font style=&quot;letter-spacing: 0px ; direction: ltr ; line-height: 21.6px ; opacity: 1&quot;&gt;&lt;i&gt;.33&lt;/i&gt;&lt;/font&gt;&lt;font style=&quot;letter-spacing: 0px ; direction: ltr ; line-height: 21.6px ; opacity: 1&quot;&gt;&lt;i&gt;.37&lt;/i&gt;&lt;/font&gt;&lt;font style=&quot;letter-spacing: 0px ; direction: ltr ; line-height: 21.6px ; opacity: 1&quot;&gt;&lt;i&gt;.25&lt;/i&gt;&lt;/font&gt;&lt;font style=&quot;letter-spacing: 0px ; direction: ltr ; line-height: 21.6px ; opacity: 1&quot;&gt;&lt;i&gt;.23&lt;/i&gt;&lt;/font&gt;&lt;font style=&quot;letter-spacing: 0px ; direction: ltr ; line-height: 21.6px ; opacity: 1&quot;&gt;&lt;i&gt;&amp;nbsp;ГЧ&lt;/i&gt;&lt;/font&gt;&lt;i style=&quot;font-size: 18px&quot;&gt;&lt;br style=&quot;font-size: 18px&quot;&gt;&lt;/i&gt;&lt;/font&gt;&lt;/p&gt;" style="verticalAlign=middle;align=center;vsdxID=46;fillColor=none;gradientColor=none;shape=stencil(nZBLDoAgDERP0z3SIyjew0SURgSD+Lu9kMZoXLhwN9O+tukAlrNpJg1SzDH4QW/URgNYgZTkjA4UkwJUgGXng+6DX1zLfmoymdXo17xh5zmRJ6Q42BWCfc2oJfdAr+Yv+AP9Cb7OJ3H/2JG1HNGz/84klThPVCc=);strokeColor=none;labelBackgroundColor=none;rounded=0;html=1;whiteSpace=wrap;direction=east;fontFamily=Isocpeur;fontSize=18;rotation=0;movable=1;resizable=1;rotatable=1;deletable=1;editable=1;locked=0;connectable=1;fontSource=https%3A%2F%2Ffonts.googleapis.com%2Fcss%3Ffamily%3DIsocpeur;" parent="M2fhNpQBCmosjPJaxfH--2" vertex="1">
          <mxGeometry x="307.39" width="354.3" height="60" as="geometry" />
        </mxCell>
        <mxCell id="M2fhNpQBCmosjPJaxfH--46" value="&lt;p style=&quot;margin: 0px; text-indent: 0px; direction: ltr; font-size: 18px;&quot;&gt;&lt;font style=&quot;font-size: 18px; color: rgb(0, 0, 0); direction: ltr; letter-spacing: 0px; line-height: 120%; opacity: 1;&quot;&gt;&lt;i style=&quot;font-size: 18px;&quot;&gt;&lt;br style=&quot;font-size: 18px;&quot;&gt;&lt;/i&gt;&lt;/font&gt;&lt;/p&gt;" style="verticalAlign=middle;align=left;vsdxID=79;fillColor=none;gradientColor=none;shape=stencil(nZBLDoAgDERP0z3SIyjew0SURgSD+Lu9kMZoXLhwN9O+tukAlrNpJg1SzDH4QW/URgNYgZTkjA4UkwJUgGXng+6DX1zLfmoymdXo17xh5zmRJ6Q42BWCfc2oJfdAr+Yv+AP9Cb7OJ3H/2JG1HNGz/84klThPVCc=);strokeColor=none;labelBackgroundColor=none;rounded=0;html=1;whiteSpace=wrap;direction=east;fontFamily=Times New Roman;fontSize=18;rotation=0;movable=1;resizable=1;rotatable=1;deletable=1;editable=1;locked=0;connectable=1;" parent="M2fhNpQBCmosjPJaxfH--2" vertex="1">
          <mxGeometry x="69.86154398533222" y="167.20320675105478" width="149.70330853999758" height="24.64047257383966" as="geometry" />
        </mxCell>
        <mxCell id="M2fhNpQBCmosjPJaxfH--47" value="&lt;p style=&quot;margin: 0px; text-indent: 0px; direction: ltr; font-size: 18px;&quot;&gt;&lt;font style=&quot;font-size: 18px; color: rgb(0, 0, 0); direction: ltr; letter-spacing: 0px; line-height: 120%; opacity: 1;&quot;&gt;&lt;i style=&quot;font-size: 18px;&quot;&gt;&lt;br style=&quot;font-size: 18px;&quot;&gt;&lt;/i&gt;&lt;/font&gt;&lt;/p&gt;" style="verticalAlign=middle;align=left;vsdxID=81;fillColor=none;gradientColor=none;shape=stencil(nZBLDoAgDERP0z3SIyjew0SURgSD+Lu9kMZoXLhwN9O+tukAlrNpJg1SzDH4QW/URgNYgZTkjA4UkwJUgGXng+6DX1zLfmoymdXo17xh5zmRJ6Q42BWCfc2oJfdAr+Yv+AP9Cb7OJ3H/2JG1HNGz/84klThPVCc=);strokeColor=none;labelBackgroundColor=none;rounded=0;html=1;whiteSpace=wrap;direction=east;fontFamily=Times New Roman;fontSize=18;rotation=0;movable=1;resizable=1;rotatable=1;deletable=1;editable=1;locked=0;connectable=1;" parent="M2fhNpQBCmosjPJaxfH--2" vertex="1">
          <mxGeometry x="68.86352192839891" y="183.92352742616026" width="139.72308797066444" height="24.64047257383966" as="geometry" />
        </mxCell>
        <mxCell id="M2fhNpQBCmosjPJaxfH--48" value="&lt;p style=&quot;margin: 0px; text-indent: 0px; direction: ltr; font-size: 18px;&quot;&gt;&lt;font style=&quot;font-size: 18px; color: rgb(0, 0, 0); direction: ltr; letter-spacing: 0px; line-height: 120%; opacity: 1;&quot;&gt;&lt;i style=&quot;font-size: 18px;&quot;&gt;УО ГГПК&lt;br style=&quot;font-size: 18px;&quot;&gt;&lt;/i&gt;&lt;/font&gt;&lt;/p&gt;" style="verticalAlign=middle;align=center;vsdxID=48;fillColor=none;gradientColor=none;strokeColor=none;labelBackgroundColor=none;rounded=0;html=1;whiteSpace=wrap;direction=east;fontFamily=Isocpeur;fontSize=18;rotation=0;movable=1;resizable=1;rotatable=1;deletable=1;editable=1;locked=0;connectable=1;fontSource=https%3A%2F%2Ffonts.googleapis.com%2Fcss%3Ffamily%3DIsocpeur;" parent="M2fhNpQBCmosjPJaxfH--2" vertex="1">
          <mxGeometry x="543.9220210286578" y="152.24291983122365" width="199.60441138666343" height="50.16096202531645" as="geometry" />
        </mxCell>
        <mxCell id="M2fhNpQBCmosjPJaxfH--49" value="&lt;font style=&quot;font-size: 18px; color: rgb(0, 0, 0); direction: ltr; letter-spacing: 0px; line-height: 120%; opacity: 1;&quot;&gt;&lt;i style=&quot;font-size: 18px;&quot;&gt;Схема работы системы&lt;br style=&quot;font-size: 18px;&quot;&gt;&lt;/i&gt;&lt;/font&gt;" style="verticalAlign=middle;align=center;vsdxID=43;fillColor=none;gradientColor=none;shape=stencil(nZBLDoAgDERP0z3SIyjew0SURgSD+Lu9kMZoXLhwN9O+tukAlrNpJg1SzDH4QW/URgNYgZTkjA4UkwJUgGXng+6DX1zLfmoymdXo17xh5zmRJ6Q42BWCfc2oJfdAr+Yv+AP9Cb7OJ3H/2JG1HNGz/84klThPVCc=);strokeColor=none;labelBackgroundColor=none;rounded=0;html=1;whiteSpace=wrap;direction=east;fontFamily=Isocpeur;fontSize=18;rotation=0;movable=1;resizable=1;rotatable=1;deletable=1;editable=1;locked=0;connectable=1;fontSource=https%3A%2F%2Ffonts.googleapis.com%2Fcss%3Ffamily%3DIsocpeur;" parent="M2fhNpQBCmosjPJaxfH--2" vertex="1">
          <mxGeometry x="262.4798009734624" y="66.88128270042192" width="278.4481538843954" height="83.60160337552739" as="geometry" />
        </mxCell>
        <mxCell id="85oeVFAckclxSTVMYRc8-92" value="" style="endArrow=none;html=1;rounded=0;strokeWidth=3;fontFamily=Isocpeur;fontSource=https%3A%2F%2Ffonts.googleapis.com%2Fcss%3Ffamily%3DIsocpeur;entryX=1;entryY=1;entryDx=0;entryDy=0;" parent="M2fhNpQBCmosjPJaxfH--2" target="M2fhNpQBCmosjPJaxfH--2" edge="1">
          <mxGeometry width="50" height="50" relative="1" as="geometry">
            <mxPoint x="-2396.4216524216517" y="208.56399999999985" as="sourcePoint" />
            <mxPoint x="83.57834757834826" y="8.56399999999985" as="targetPoint" />
          </mxGeometry>
        </mxCell>
        <mxCell id="M2fhNpQBCmosjPJaxfH--50" value="" style="group;rotation=0;movable=1;resizable=1;rotatable=1;deletable=1;editable=1;locked=0;connectable=1;" parent="1" vertex="1" connectable="0">
          <mxGeometry x="3429.0367350157962" y="17.73949216980754" width="560" height="108.24000000000001" as="geometry" />
        </mxCell>
        <mxCell id="M2fhNpQBCmosjPJaxfH--51" value="" style="group;fontFamily=Times New Roman;fontSize=18;rotation=0;movable=1;resizable=1;rotatable=1;deletable=1;editable=1;locked=0;connectable=1;" parent="M2fhNpQBCmosjPJaxfH--50" vertex="1" connectable="0">
          <mxGeometry y="5.577293482175009" width="423.15999999999997" height="102.662706517825" as="geometry" />
        </mxCell>
        <mxCell id="M2fhNpQBCmosjPJaxfH--52" style="vsdxID=47;fillColor=none;gradientColor=none;shape=stencil(nZBLDoAgDERP0z3SIyjew0SURgSD+Lu9kMZoXLhwN9O+tukAlrNpJg1SzDH4QW/URgNYgZTkjA4UkwJUgGXng+6DX1zLfmoymdXo17xh5zmRJ6Q42BWCfc2oJfdAr+Yv+AP9Cb7OJ3H/2JG1HNGz/84klThPVCc=);strokeColor=none;labelBackgroundColor=none;rounded=0;html=1;whiteSpace=wrap;direction=east;fontFamily=Times New Roman;fontSize=18;rotation=0;movable=1;resizable=1;rotatable=1;deletable=1;editable=1;locked=0;connectable=1;" parent="M2fhNpQBCmosjPJaxfH--51" vertex="1">
          <mxGeometry y="1.5935124234785738" width="369.4910208704093" height="55.77293482175009" as="geometry" />
        </mxCell>
        <mxCell id="M2fhNpQBCmosjPJaxfH--53" value="&lt;p style=&quot;margin: 17px 0px 0px; text-indent: 0px; direction: ltr; font-size: 18px;&quot;&gt;&lt;font style=&quot;font-size: 18px; color: rgb(0, 0, 0); direction: ltr; letter-spacing: 0px; line-height: 120%; opacity: 1;&quot;&gt;&lt;i style=&quot;font-size: 18px;&quot;&gt;КП 2-40 01 01&lt;/i&gt;&lt;/font&gt;&lt;font style=&quot;font-size: 18px; color: rgb(0, 0, 0); direction: ltr; letter-spacing: 0px; line-height: 120%; opacity: 1;&quot;&gt;&lt;i style=&quot;font-size: 18px;&quot;&gt;.3&lt;/i&gt;&lt;/font&gt;&lt;font style=&quot;font-size: 18px; color: rgb(0, 0, 0); direction: ltr; letter-spacing: 0px; line-height: 120%; opacity: 1;&quot;&gt;&lt;i style=&quot;font-size: 18px;&quot;&gt;5&lt;/i&gt;&lt;/font&gt;&lt;font style=&quot;font-size: 18px; color: rgb(0, 0, 0); direction: ltr; letter-spacing: 0px; line-height: 120%; opacity: 1;&quot;&gt;&lt;i style=&quot;font-size: 18px;&quot;&gt;.34&lt;/i&gt;&lt;/font&gt;&lt;font style=&quot;font-size: 18px; color: rgb(0, 0, 0); direction: ltr; letter-spacing: 0px; line-height: 120%; opacity: 1;&quot;&gt;&lt;i style=&quot;font-size: 18px;&quot;&gt;.&lt;/i&gt;&lt;/font&gt;&lt;font style=&quot;font-size: 18px; color: rgb(0, 0, 0); direction: ltr; letter-spacing: 0px; line-height: 120%; opacity: 1;&quot;&gt;&lt;i style=&quot;font-size: 18px;&quot;&gt;08&lt;/i&gt;&lt;/font&gt;&lt;font style=&quot;font-size: 18px; color: rgb(0, 0, 0); direction: ltr; letter-spacing: 0px; line-height: 120%; opacity: 1;&quot;&gt;&lt;i style=&quot;font-size: 18px;&quot;&gt;.22&lt;/i&gt;&lt;/font&gt;&lt;font style=&quot;font-size: 18px; color: rgb(0, 0, 0); direction: ltr; letter-spacing: 0px; line-height: 120%; opacity: 1;&quot;&gt;&lt;i style=&quot;font-size: 18px;&quot;&gt;&amp;nbsp;ГЧ&lt;br style=&quot;font-size: 18px;&quot;&gt;&lt;/i&gt;&lt;/font&gt;&lt;/p&gt;" style="text;vsdxID=47;fillColor=none;gradientColor=none;strokeColor=none;labelBackgroundColor=none;rounded=0;html=1;whiteSpace=wrap;verticalAlign=middle;align=center;rotation=180.09;;html=1;direction=east;fontFamily=Times New Roman;fontSize=18;movable=1;resizable=1;rotatable=1;deletable=1;editable=1;locked=0;connectable=1;" parent="M2fhNpQBCmosjPJaxfH--52" vertex="1">
          <mxGeometry width="369.9509681992936" height="56.07039047413276" as="geometry" />
        </mxCell>
        <mxCell id="M2fhNpQBCmosjPJaxfH--54" value="" style="verticalAlign=middle;align=center;vsdxID=42;fillColor=none;gradientColor=none;shape=stencil(nZBLDoAgDERP0z3SIyjew0SURgSD+Lu9kMZoXLhwN9O+tukAlrNpJg1SzDH4QW/URgNYgZTkjA4UkwJUgGXng+6DX1zLfmoymdXo17xh5zmRJ6Q42BWCfc2oJfdAr+Yv+AP9Cb7OJ3H/2JG1HNGz/84klThPVCc=);strokeColor=#000000;strokeWidth=3;spacingTop=-1;spacingBottom=-1;spacingLeft=-1;spacingRight=-1;labelBackgroundColor=none;rounded=0;html=1;whiteSpace=wrap;direction=east;fontFamily=Times New Roman;fontSize=18;rotation=-180;movable=1;resizable=1;rotatable=1;deletable=1;editable=1;locked=0;connectable=1;" parent="M2fhNpQBCmosjPJaxfH--50" vertex="1">
          <mxGeometry width="372.6356253033489" height="58.561581562837596" as="geometry" />
        </mxCell>
        <mxCell id="M2fhNpQBCmosjPJaxfH--55" value="" style="rounded=0;whiteSpace=wrap;html=1;movable=1;resizable=1;rotatable=1;deletable=1;editable=1;locked=0;connectable=1;" parent="M2fhNpQBCmosjPJaxfH--50" vertex="1">
          <mxGeometry width="371.84947419511394" height="58.163203456967956" as="geometry" />
        </mxCell>
        <mxCell id="M2fhNpQBCmosjPJaxfH--56" value="&lt;font data-font-src=&quot;https://fonts.googleapis.com/css?family=Isocpeur&quot; face=&quot;Isocpeur&quot;&gt;&lt;font style=&quot;border-color: var(--border-color); font-size: 18px; letter-spacing: 0px; direction: ltr; line-height: 21.6px; opacity: 1;&quot;&gt;&lt;i style=&quot;border-color: var(--border-color);&quot;&gt;КП 2-40 01 01&lt;/i&gt;&lt;/font&gt;&lt;font style=&quot;border-color: var(--border-color); font-size: 18px; letter-spacing: 0px; direction: ltr; line-height: 21.6px; opacity: 1;&quot;&gt;&lt;i style=&quot;border-color: var(--border-color);&quot;&gt;.33&lt;/i&gt;&lt;/font&gt;&lt;font style=&quot;border-color: var(--border-color); font-size: 18px; letter-spacing: 0px; direction: ltr; line-height: 21.6px; opacity: 1;&quot;&gt;&lt;i style=&quot;border-color: var(--border-color);&quot;&gt;.41&lt;/i&gt;&lt;/font&gt;&lt;font style=&quot;border-color: var(--border-color); font-size: 18px; letter-spacing: 0px; direction: ltr; line-height: 21.6px; opacity: 1;&quot;&gt;&lt;i style=&quot;border-color: var(--border-color);&quot;&gt;.14&lt;/i&gt;&lt;/font&gt;&lt;font style=&quot;border-color: var(--border-color); font-size: 18px; letter-spacing: 0px; direction: ltr; line-height: 21.6px; opacity: 1;&quot;&gt;&lt;i style=&quot;border-color: var(--border-color);&quot;&gt;.24&lt;/i&gt;&lt;/font&gt;&lt;font style=&quot;border-color: var(--border-color); font-size: 18px; letter-spacing: 0px; direction: ltr; line-height: 21.6px; opacity: 1;&quot;&gt;&lt;i style=&quot;border-color: var(--border-color);&quot;&gt;&amp;nbsp;ГЧ&lt;/i&gt;&lt;/font&gt;&lt;/font&gt;" style="text;html=1;align=center;verticalAlign=middle;resizable=1;points=[];autosize=1;strokeColor=none;fillColor=none;movable=1;rotatable=1;deletable=1;editable=1;locked=0;connectable=1;rotation=-180;" parent="M2fhNpQBCmosjPJaxfH--50" vertex="1">
          <mxGeometry x="101.48" y="12.73" width="221" height="34" as="geometry" />
        </mxCell>
        <mxCell id="I1msuUKxY2DK9ng32tHu-158" value="&lt;font style=&quot;font-size: 18px;&quot; data-font-src=&quot;https://fonts.googleapis.com/css?family=Isocpeur&quot; face=&quot;Isocpeur&quot;&gt;&lt;i&gt;Разработка игрового приложения &quot;Японские нонограммы&quot;&lt;/i&gt;&lt;/font&gt;" style="text;html=1;strokeColor=none;fillColor=none;align=center;verticalAlign=middle;whiteSpace=wrap;rounded=0;" parent="1" vertex="1">
          <mxGeometry x="6090" y="2260" width="280" height="50" as="geometry" />
        </mxCell>
        <mxCell id="85oeVFAckclxSTVMYRc8-89" value="" style="endArrow=none;html=1;rounded=0;fontFamily=Isocpeur;fontSource=https%3A%2F%2Ffonts.googleapis.com%2Fcss%3Ffamily%3DIsocpeur;entryX=0;entryY=0.5;entryDx=0;entryDy=0;strokeWidth=3;" parent="1" target="M2fhNpQBCmosjPJaxfH--51" edge="1">
          <mxGeometry width="50" height="50" relative="1" as="geometry">
            <mxPoint x="3429" y="2320" as="sourcePoint" />
            <mxPoint x="5220" y="1290" as="targetPoint" />
          </mxGeometry>
        </mxCell>
        <mxCell id="85oeVFAckclxSTVMYRc8-90" value="" style="endArrow=none;html=1;rounded=0;strokeWidth=3;fontFamily=Isocpeur;fontSource=https%3A%2F%2Ffonts.googleapis.com%2Fcss%3Ffamily%3DIsocpeur;entryX=1;entryY=0;entryDx=0;entryDy=0;" parent="1" target="M2fhNpQBCmosjPJaxfH--55" edge="1">
          <mxGeometry width="50" height="50" relative="1" as="geometry">
            <mxPoint x="6570" y="18" as="sourcePoint" />
            <mxPoint x="5220" y="490" as="targetPoint" />
          </mxGeometry>
        </mxCell>
        <mxCell id="85oeVFAckclxSTVMYRc8-91" value="" style="endArrow=none;html=1;rounded=0;strokeWidth=3;fontFamily=Isocpeur;fontSource=https%3A%2F%2Ffonts.googleapis.com%2Fcss%3Ffamily%3DIsocpeur;exitX=1;exitY=1;exitDx=0;exitDy=0;" parent="1" source="M2fhNpQBCmosjPJaxfH--48" edge="1">
          <mxGeometry width="50" height="50" relative="1" as="geometry">
            <mxPoint x="6550" y="2080" as="sourcePoint" />
            <mxPoint x="6570" y="20" as="targetPoint" />
          </mxGeometry>
        </mxCell>
        <mxCell id="SsQ0BOoLg-oKRbzeftOZ-1" value="Начало" style="ellipse;whiteSpace=wrap;html=1;fontSize=16;" parent="1" vertex="1">
          <mxGeometry x="4866.42" y="270" width="140" height="70" as="geometry" />
        </mxCell>
        <mxCell id="SsQ0BOoLg-oKRbzeftOZ-2" value="Загрузочный экран" style="shape=display;whiteSpace=wrap;html=1;fontSize=16;" parent="1" vertex="1">
          <mxGeometry x="4866.42" y="371" width="140" height="70" as="geometry" />
        </mxCell>
        <mxCell id="SsQ0BOoLg-oKRbzeftOZ-3" value="Главная&amp;nbsp; &amp;nbsp;форма&amp;nbsp;&amp;nbsp;" style="shape=display;whiteSpace=wrap;html=1;fontSize=16;" parent="1" vertex="1">
          <mxGeometry x="4866.42" y="470" width="140" height="70" as="geometry" />
        </mxCell>
        <mxCell id="SsQ0BOoLg-oKRbzeftOZ-4" value="Об авторе" style="shape=display;whiteSpace=wrap;html=1;fontSize=16;" parent="1" vertex="1">
          <mxGeometry x="4301.42" y="590" width="140" height="70" as="geometry" />
        </mxCell>
        <mxCell id="SsQ0BOoLg-oKRbzeftOZ-5" value="Начать игру" style="shape=display;whiteSpace=wrap;html=1;fontSize=15;" parent="1" vertex="1">
          <mxGeometry x="4861.42" y="587" width="140" height="70" as="geometry" />
        </mxCell>
        <mxCell id="SsQ0BOoLg-oKRbzeftOZ-6" value="Выход" style="shape=display;whiteSpace=wrap;html=1;fontSize=16;" parent="1" vertex="1">
          <mxGeometry x="5396.42" y="590" width="140" height="70" as="geometry" />
        </mxCell>
        <mxCell id="SsQ0BOoLg-oKRbzeftOZ-7" value="Вывод информации об авторе" style="rounded=0;whiteSpace=wrap;html=1;fontSize=16;" parent="1" vertex="1">
          <mxGeometry x="4301.42" y="730" width="140" height="70" as="geometry" />
        </mxCell>
        <mxCell id="SsQ0BOoLg-oKRbzeftOZ-9" value="" style="shape=display;whiteSpace=wrap;html=1;fontSize=16;" parent="1" vertex="1">
          <mxGeometry x="4881.42" y="870" width="140" height="70" as="geometry" />
        </mxCell>
        <mxCell id="SsQ0BOoLg-oKRbzeftOZ-10" value="" style="shape=display;whiteSpace=wrap;html=1;fontSize=16;" parent="1" vertex="1">
          <mxGeometry x="4871.42" y="880" width="140" height="70" as="geometry" />
        </mxCell>
        <mxCell id="SsQ0BOoLg-oKRbzeftOZ-11" value="Выбор уровня" style="shape=display;whiteSpace=wrap;html=1;fontSize=16;" parent="1" vertex="1">
          <mxGeometry x="4861.42" y="890" width="140" height="70" as="geometry" />
        </mxCell>
        <mxCell id="SsQ0BOoLg-oKRbzeftOZ-12" value="Формирование пути" style="rounded=0;whiteSpace=wrap;html=1;fontSize=16;" parent="1" vertex="1">
          <mxGeometry x="4861.42" y="1030" width="140" height="70" as="geometry" />
        </mxCell>
        <mxCell id="SsQ0BOoLg-oKRbzeftOZ-14" value="Подгрузка уровней из файла *txt" style="strokeWidth=1;html=1;shape=mxgraph.flowchart.direct_data;whiteSpace=wrap;fontSize=15;" parent="1" vertex="1">
          <mxGeometry x="4861.42" y="1300" width="140" height="70" as="geometry" />
        </mxCell>
        <mxCell id="SsQ0BOoLg-oKRbzeftOZ-15" value="Заполнение таблицы" style="rounded=0;whiteSpace=wrap;html=1;fontSize=16;" parent="1" vertex="1">
          <mxGeometry x="4861.42" y="1440" width="140" height="70" as="geometry" />
        </mxCell>
        <mxCell id="SsQ0BOoLg-oKRbzeftOZ-17" value="Игровой процесс" style="rounded=0;whiteSpace=wrap;html=1;fontSize=16;" parent="1" vertex="1">
          <mxGeometry x="4861.42" y="1580" width="140" height="70" as="geometry" />
        </mxCell>
        <mxCell id="SsQ0BOoLg-oKRbzeftOZ-18" value="Проверка решения" style="shape=display;whiteSpace=wrap;html=1;fontSize=16;" parent="1" vertex="1">
          <mxGeometry x="5105" y="893" width="140" height="70" as="geometry" />
        </mxCell>
        <mxCell id="SsQ0BOoLg-oKRbzeftOZ-20" value="На главную форму" style="shape=display;whiteSpace=wrap;html=1;fontSize=16;" parent="1" vertex="1">
          <mxGeometry x="5597" y="893" width="140" height="70" as="geometry" />
        </mxCell>
        <mxCell id="SsQ0BOoLg-oKRbzeftOZ-21" value="Вывод сообщения" style="rounded=0;whiteSpace=wrap;html=1;fontSize=16;" parent="1" vertex="1">
          <mxGeometry x="5105" y="1016" width="140" height="70" as="geometry" />
        </mxCell>
        <mxCell id="SsQ0BOoLg-oKRbzeftOZ-22" value="" style="endArrow=none;html=1;rounded=0;exitX=0.5;exitY=1;exitDx=0;exitDy=0;entryX=0;entryY=0;entryDx=70;entryDy=0;entryPerimeter=0;" parent="1" source="SsQ0BOoLg-oKRbzeftOZ-1" target="SsQ0BOoLg-oKRbzeftOZ-2" edge="1">
          <mxGeometry width="50" height="50" relative="1" as="geometry">
            <mxPoint x="4951.42" y="270" as="sourcePoint" />
            <mxPoint x="4977" y="350" as="targetPoint" />
          </mxGeometry>
        </mxCell>
        <mxCell id="SsQ0BOoLg-oKRbzeftOZ-23" value="" style="endArrow=none;html=1;rounded=0;exitX=0;exitY=0;exitDx=70;exitDy=70;exitPerimeter=0;entryX=0;entryY=0;entryDx=70;entryDy=0;entryPerimeter=0;" parent="1" source="SsQ0BOoLg-oKRbzeftOZ-2" target="SsQ0BOoLg-oKRbzeftOZ-3" edge="1">
          <mxGeometry width="50" height="50" relative="1" as="geometry">
            <mxPoint x="4931.42" y="410" as="sourcePoint" />
            <mxPoint x="4981.42" y="360" as="targetPoint" />
          </mxGeometry>
        </mxCell>
        <mxCell id="SsQ0BOoLg-oKRbzeftOZ-24" value="" style="endArrow=none;html=1;rounded=0;entryX=0;entryY=0;entryDx=75;entryDy=0;entryPerimeter=0;exitX=0;exitY=0;exitDx=70;exitDy=70;exitPerimeter=0;" parent="1" source="SsQ0BOoLg-oKRbzeftOZ-3" target="SsQ0BOoLg-oKRbzeftOZ-5" edge="1">
          <mxGeometry width="50" height="50" relative="1" as="geometry">
            <mxPoint x="4886" y="566" as="sourcePoint" />
            <mxPoint x="4981.42" y="480" as="targetPoint" />
          </mxGeometry>
        </mxCell>
        <mxCell id="SsQ0BOoLg-oKRbzeftOZ-25" value="" style="endArrow=none;html=1;rounded=0;exitX=0;exitY=0;exitDx=70;exitDy=0;entryX=0;entryY=0;entryDx=70;entryDy=70;entryPerimeter=0;exitPerimeter=0;" parent="1" source="Zx2KrxO4B_kwL_E8NJqR-2" target="SsQ0BOoLg-oKRbzeftOZ-5" edge="1">
          <mxGeometry width="50" height="50" relative="1" as="geometry">
            <mxPoint x="4931.42" y="721.9999999999998" as="sourcePoint" />
            <mxPoint x="4981.42" y="650" as="targetPoint" />
          </mxGeometry>
        </mxCell>
        <mxCell id="SsQ0BOoLg-oKRbzeftOZ-26" value="" style="endArrow=none;html=1;rounded=0;exitX=0;exitY=0;exitDx=75;exitDy=0;exitPerimeter=0;entryX=0;entryY=0;entryDx=70;entryDy=70;entryPerimeter=0;" parent="1" source="SsQ0BOoLg-oKRbzeftOZ-11" target="Zx2KrxO4B_kwL_E8NJqR-2" edge="1">
          <mxGeometry width="50" height="50" relative="1" as="geometry">
            <mxPoint x="4951.42" y="920" as="sourcePoint" />
            <mxPoint x="4936.42" y="770" as="targetPoint" />
          </mxGeometry>
        </mxCell>
        <mxCell id="SsQ0BOoLg-oKRbzeftOZ-27" value="" style="endArrow=none;html=1;rounded=0;exitX=0.5;exitY=0;exitDx=0;exitDy=0;entryX=0;entryY=0;entryDx=70;entryDy=70;entryPerimeter=0;" parent="1" source="SsQ0BOoLg-oKRbzeftOZ-12" target="SsQ0BOoLg-oKRbzeftOZ-11" edge="1">
          <mxGeometry width="50" height="50" relative="1" as="geometry">
            <mxPoint x="4951.42" y="1030" as="sourcePoint" />
            <mxPoint x="4962" y="979" as="targetPoint" />
          </mxGeometry>
        </mxCell>
        <mxCell id="SsQ0BOoLg-oKRbzeftOZ-28" value="" style="endArrow=none;html=1;rounded=0;entryX=0.5;entryY=1;entryDx=0;entryDy=0;" parent="1" target="SsQ0BOoLg-oKRbzeftOZ-12" edge="1">
          <mxGeometry width="50" height="50" relative="1" as="geometry">
            <mxPoint x="4931" y="1244" as="sourcePoint" />
            <mxPoint x="4948" y="1107" as="targetPoint" />
          </mxGeometry>
        </mxCell>
        <mxCell id="SsQ0BOoLg-oKRbzeftOZ-29" value="" style="endArrow=none;html=1;rounded=0;exitX=0.5;exitY=0;exitDx=0;exitDy=0;exitPerimeter=0;" parent="1" source="SsQ0BOoLg-oKRbzeftOZ-14" edge="1">
          <mxGeometry width="50" height="50" relative="1" as="geometry">
            <mxPoint x="4950" y="1296" as="sourcePoint" />
            <mxPoint x="4931" y="1232" as="targetPoint" />
          </mxGeometry>
        </mxCell>
        <mxCell id="SsQ0BOoLg-oKRbzeftOZ-30" value="" style="endArrow=none;html=1;rounded=0;entryX=0.5;entryY=1;entryDx=0;entryDy=0;entryPerimeter=0;exitX=0.5;exitY=0;exitDx=0;exitDy=0;" parent="1" source="SsQ0BOoLg-oKRbzeftOZ-15" target="SsQ0BOoLg-oKRbzeftOZ-14" edge="1">
          <mxGeometry width="50" height="50" relative="1" as="geometry">
            <mxPoint x="4921.42" y="1480" as="sourcePoint" />
            <mxPoint x="4971.42" y="1430" as="targetPoint" />
          </mxGeometry>
        </mxCell>
        <mxCell id="SsQ0BOoLg-oKRbzeftOZ-31" value="" style="endArrow=none;html=1;rounded=0;entryX=0.5;entryY=1;entryDx=0;entryDy=0;exitX=0.5;exitY=0;exitDx=0;exitDy=0;" parent="1" source="SsQ0BOoLg-oKRbzeftOZ-17" target="SsQ0BOoLg-oKRbzeftOZ-15" edge="1">
          <mxGeometry width="50" height="50" relative="1" as="geometry">
            <mxPoint x="4921.42" y="1620" as="sourcePoint" />
            <mxPoint x="4971.42" y="1570" as="targetPoint" />
          </mxGeometry>
        </mxCell>
        <mxCell id="SsQ0BOoLg-oKRbzeftOZ-36" value="" style="endArrow=none;html=1;rounded=0;exitX=0.5;exitY=0;exitDx=0;exitDy=0;entryX=0;entryY=0;entryDx=70;entryDy=70;entryPerimeter=0;" parent="1" source="SsQ0BOoLg-oKRbzeftOZ-21" target="SsQ0BOoLg-oKRbzeftOZ-18" edge="1">
          <mxGeometry width="50" height="50" relative="1" as="geometry">
            <mxPoint x="5227.42" y="1383" as="sourcePoint" />
            <mxPoint x="5277.42" y="1333" as="targetPoint" />
          </mxGeometry>
        </mxCell>
        <mxCell id="SsQ0BOoLg-oKRbzeftOZ-37" value="" style="endArrow=classic;html=1;rounded=0;" parent="1" edge="1">
          <mxGeometry width="50" height="50" relative="1" as="geometry">
            <mxPoint x="4936.42" y="550" as="sourcePoint" />
            <mxPoint x="4369.42" y="550" as="targetPoint" />
          </mxGeometry>
        </mxCell>
        <mxCell id="SsQ0BOoLg-oKRbzeftOZ-38" value="" style="endArrow=none;html=1;rounded=0;exitX=0;exitY=0;exitDx=68.75;exitDy=0;exitPerimeter=0;" parent="1" source="SsQ0BOoLg-oKRbzeftOZ-4" edge="1">
          <mxGeometry width="50" height="50" relative="1" as="geometry">
            <mxPoint x="4571.42" y="590" as="sourcePoint" />
            <mxPoint x="4370.42" y="550" as="targetPoint" />
          </mxGeometry>
        </mxCell>
        <mxCell id="SsQ0BOoLg-oKRbzeftOZ-39" value="" style="endArrow=none;html=1;rounded=0;" parent="1" edge="1">
          <mxGeometry width="50" height="50" relative="1" as="geometry">
            <mxPoint x="4936.42" y="550" as="sourcePoint" />
            <mxPoint x="5465.42" y="550" as="targetPoint" />
          </mxGeometry>
        </mxCell>
        <mxCell id="SsQ0BOoLg-oKRbzeftOZ-40" value="" style="endArrow=none;html=1;rounded=0;exitX=0;exitY=0;exitDx=68.75;exitDy=0;exitPerimeter=0;" parent="1" source="SsQ0BOoLg-oKRbzeftOZ-6" edge="1">
          <mxGeometry width="50" height="50" relative="1" as="geometry">
            <mxPoint x="5461.42" y="570" as="sourcePoint" />
            <mxPoint x="5465.42" y="550" as="targetPoint" />
          </mxGeometry>
        </mxCell>
        <mxCell id="SsQ0BOoLg-oKRbzeftOZ-41" value="" style="endArrow=none;html=1;rounded=0;exitX=0.5;exitY=0;exitDx=0;exitDy=0;entryX=0;entryY=0;entryDx=70;entryDy=70;entryPerimeter=0;" parent="1" source="SsQ0BOoLg-oKRbzeftOZ-7" target="SsQ0BOoLg-oKRbzeftOZ-4" edge="1">
          <mxGeometry width="50" height="50" relative="1" as="geometry">
            <mxPoint x="4431.42" y="730" as="sourcePoint" />
            <mxPoint x="4481.42" y="680" as="targetPoint" />
          </mxGeometry>
        </mxCell>
        <mxCell id="SsQ0BOoLg-oKRbzeftOZ-42" value="" style="endArrow=none;html=1;rounded=0;exitX=0;exitY=0;exitDx=70;exitDy=70;exitPerimeter=0;" parent="1" source="SsQ0BOoLg-oKRbzeftOZ-20" edge="1">
          <mxGeometry width="50" height="50" relative="1" as="geometry">
            <mxPoint x="5603" y="1401" as="sourcePoint" />
            <mxPoint x="4941.42" y="450" as="targetPoint" />
            <Array as="points">
              <mxPoint x="5669" y="1001" />
              <mxPoint x="5821" y="1001" />
              <mxPoint x="5821.42" y="450" />
            </Array>
          </mxGeometry>
        </mxCell>
        <mxCell id="SsQ0BOoLg-oKRbzeftOZ-43" value="" style="endArrow=classic;html=1;rounded=0;" parent="1" edge="1">
          <mxGeometry width="50" height="50" relative="1" as="geometry">
            <mxPoint x="5011.42" y="450" as="sourcePoint" />
            <mxPoint x="4937.42" y="450" as="targetPoint" />
          </mxGeometry>
        </mxCell>
        <mxCell id="SsQ0BOoLg-oKRbzeftOZ-45" value="" style="endArrow=classic;html=1;rounded=0;strokeWidth=0.5;" parent="1" edge="1">
          <mxGeometry width="50" height="50" relative="1" as="geometry">
            <mxPoint x="5821.42" y="490" as="sourcePoint" />
            <mxPoint x="5821.42" y="450" as="targetPoint" />
          </mxGeometry>
        </mxCell>
        <mxCell id="SsQ0BOoLg-oKRbzeftOZ-51" value="&lt;font style=&quot;font-size: 15px;&quot;&gt;Уровень данной сложности пройден&lt;/font&gt;" style="rhombus;whiteSpace=wrap;html=1;strokeWidth=1;" parent="1" vertex="1">
          <mxGeometry x="4861.42" y="1695" width="140" height="140" as="geometry" />
        </mxCell>
        <mxCell id="SsQ0BOoLg-oKRbzeftOZ-56" value="" style="endArrow=none;html=1;rounded=0;exitX=0;exitY=0;exitDx=70;exitDy=70;exitPerimeter=0;" parent="1" source="SsQ0BOoLg-oKRbzeftOZ-6" edge="1">
          <mxGeometry width="50" height="50" relative="1" as="geometry">
            <mxPoint x="5629" y="785" as="sourcePoint" />
            <mxPoint x="5806" y="702" as="targetPoint" />
            <Array as="points">
              <mxPoint x="5466" y="702" />
            </Array>
          </mxGeometry>
        </mxCell>
        <mxCell id="SsQ0BOoLg-oKRbzeftOZ-61" value="" style="endArrow=none;html=1;rounded=0;curved=1;sourcePerimeterSpacing=0;targetPerimeterSpacing=0;" parent="1" edge="1">
          <mxGeometry width="50" height="50" relative="1" as="geometry">
            <mxPoint x="5806" y="702.5" as="sourcePoint" />
            <mxPoint x="5834" y="702.5" as="targetPoint" />
            <Array as="points">
              <mxPoint x="5807" y="689" />
              <mxPoint x="5821" y="681" />
              <mxPoint x="5833" y="689" />
            </Array>
          </mxGeometry>
        </mxCell>
        <mxCell id="SsQ0BOoLg-oKRbzeftOZ-62" value="" style="endArrow=none;html=1;rounded=0;entryX=0.5;entryY=1;entryDx=0;entryDy=0;exitX=0.5;exitY=0;exitDx=0;exitDy=0;" parent="1" source="SsQ0BOoLg-oKRbzeftOZ-51" target="SsQ0BOoLg-oKRbzeftOZ-17" edge="1">
          <mxGeometry width="50" height="50" relative="1" as="geometry">
            <mxPoint x="4901" y="1714" as="sourcePoint" />
            <mxPoint x="4951" y="1664" as="targetPoint" />
          </mxGeometry>
        </mxCell>
        <mxCell id="SsQ0BOoLg-oKRbzeftOZ-63" value="Конец" style="ellipse;whiteSpace=wrap;html=1;fontSize=16;" parent="1" vertex="1">
          <mxGeometry x="4861.42" y="2074" width="140" height="70" as="geometry" />
        </mxCell>
        <mxCell id="SsQ0BOoLg-oKRbzeftOZ-65" value="" style="endArrow=classic;html=1;rounded=0;" parent="1" edge="1">
          <mxGeometry width="50" height="50" relative="1" as="geometry">
            <mxPoint x="5834" y="702" as="sourcePoint" />
            <mxPoint x="4930" y="1987" as="targetPoint" />
            <Array as="points">
              <mxPoint x="5897" y="702" />
              <mxPoint x="5897" y="1987" />
            </Array>
          </mxGeometry>
        </mxCell>
        <mxCell id="SsQ0BOoLg-oKRbzeftOZ-66" value="" style="endArrow=none;html=1;rounded=0;exitX=0.5;exitY=0;exitDx=0;exitDy=0;" parent="1" source="SsQ0BOoLg-oKRbzeftOZ-63" edge="1">
          <mxGeometry width="50" height="50" relative="1" as="geometry">
            <mxPoint x="4991" y="1947" as="sourcePoint" />
            <mxPoint x="4931" y="1987" as="targetPoint" />
          </mxGeometry>
        </mxCell>
        <mxCell id="SsQ0BOoLg-oKRbzeftOZ-67" value="Справка" style="shape=display;whiteSpace=wrap;html=1;fontSize=16;" parent="1" vertex="1">
          <mxGeometry x="5351" y="890" width="140" height="70" as="geometry" />
        </mxCell>
        <mxCell id="SsQ0BOoLg-oKRbzeftOZ-68" value="help.cmh" style="strokeWidth=1;html=1;shape=mxgraph.flowchart.direct_data;whiteSpace=wrap;fontSize=15;" parent="1" vertex="1">
          <mxGeometry x="5351" y="1030" width="140" height="70" as="geometry" />
        </mxCell>
        <mxCell id="SsQ0BOoLg-oKRbzeftOZ-72" value="" style="endArrow=none;html=1;rounded=0;exitX=0.5;exitY=0;exitDx=0;exitDy=0;exitPerimeter=0;" parent="1" source="SsQ0BOoLg-oKRbzeftOZ-68" target="SsQ0BOoLg-oKRbzeftOZ-67" edge="1">
          <mxGeometry width="50" height="50" relative="1" as="geometry">
            <mxPoint x="5280" y="897" as="sourcePoint" />
            <mxPoint x="5330" y="847" as="targetPoint" />
          </mxGeometry>
        </mxCell>
        <mxCell id="SsQ0BOoLg-oKRbzeftOZ-74" value="" style="endArrow=none;html=1;rounded=0;exitX=0;exitY=0;exitDx=70;exitDy=0;exitPerimeter=0;" parent="1" source="SsQ0BOoLg-oKRbzeftOZ-18" edge="1">
          <mxGeometry width="50" height="50" relative="1" as="geometry">
            <mxPoint x="5176" y="883" as="sourcePoint" />
            <mxPoint x="5175" y="842" as="targetPoint" />
          </mxGeometry>
        </mxCell>
        <mxCell id="SsQ0BOoLg-oKRbzeftOZ-75" value="" style="endArrow=none;html=1;rounded=0;exitX=0;exitY=0;exitDx=70;exitDy=0;exitPerimeter=0;" parent="1" source="SsQ0BOoLg-oKRbzeftOZ-67" edge="1">
          <mxGeometry width="50" height="50" relative="1" as="geometry">
            <mxPoint x="5412" y="773" as="sourcePoint" />
            <mxPoint x="5421" y="843" as="targetPoint" />
          </mxGeometry>
        </mxCell>
        <mxCell id="SsQ0BOoLg-oKRbzeftOZ-76" value="" style="endArrow=none;html=1;rounded=0;exitX=0;exitY=0;exitDx=70;exitDy=0;exitPerimeter=0;" parent="1" source="SsQ0BOoLg-oKRbzeftOZ-20" edge="1">
          <mxGeometry width="50" height="50" relative="1" as="geometry">
            <mxPoint x="5162.87" y="776" as="sourcePoint" />
            <mxPoint x="4934" y="840" as="targetPoint" />
            <Array as="points">
              <mxPoint x="5667" y="847" />
            </Array>
          </mxGeometry>
        </mxCell>
        <mxCell id="SsQ0BOoLg-oKRbzeftOZ-79" value="" style="endArrow=classic;html=1;rounded=0;exitX=0;exitY=0.5;exitDx=0;exitDy=0;" parent="1" source="SsQ0BOoLg-oKRbzeftOZ-51" edge="1">
          <mxGeometry width="50" height="50" relative="1" as="geometry">
            <mxPoint x="4851" y="1719" as="sourcePoint" />
            <mxPoint x="4798" y="1765" as="targetPoint" />
          </mxGeometry>
        </mxCell>
        <mxCell id="SsQ0BOoLg-oKRbzeftOZ-80" value="Да" style="edgeLabel;html=1;align=center;verticalAlign=middle;resizable=0;points=[];fontSize=15;" parent="SsQ0BOoLg-oKRbzeftOZ-79" vertex="1" connectable="0">
          <mxGeometry x="0.325" y="-1" relative="1" as="geometry">
            <mxPoint x="24" y="2" as="offset" />
          </mxGeometry>
        </mxCell>
        <mxCell id="SsQ0BOoLg-oKRbzeftOZ-81" value="" style="endArrow=classic;html=1;rounded=0;" parent="1" edge="1">
          <mxGeometry width="50" height="50" relative="1" as="geometry">
            <mxPoint x="4800" y="1764" as="sourcePoint" />
            <mxPoint x="4802" y="860" as="targetPoint" />
          </mxGeometry>
        </mxCell>
        <mxCell id="SsQ0BOoLg-oKRbzeftOZ-83" value="" style="endArrow=none;html=1;rounded=0;exitX=1;exitY=0.5;exitDx=0;exitDy=0;" parent="1" source="SsQ0BOoLg-oKRbzeftOZ-51" edge="1">
          <mxGeometry width="50" height="50" relative="1" as="geometry">
            <mxPoint x="5122.42" y="1894.5899999999995" as="sourcePoint" />
            <mxPoint x="5049" y="1224" as="targetPoint" />
            <Array as="points">
              <mxPoint x="5050" y="1765" />
            </Array>
          </mxGeometry>
        </mxCell>
        <mxCell id="SsQ0BOoLg-oKRbzeftOZ-88" value="&lt;span style=&quot;font-size: 15px;&quot;&gt;Нет&lt;/span&gt;" style="edgeLabel;html=1;align=center;verticalAlign=middle;resizable=0;points=[];" parent="SsQ0BOoLg-oKRbzeftOZ-83" vertex="1" connectable="0">
          <mxGeometry x="-0.9366" y="4" relative="1" as="geometry">
            <mxPoint as="offset" />
          </mxGeometry>
        </mxCell>
        <mxCell id="SsQ0BOoLg-oKRbzeftOZ-89" value="" style="endArrow=none;html=1;rounded=0;exitX=0.5;exitY=1;exitDx=0;exitDy=0;" parent="1" source="SsQ0BOoLg-oKRbzeftOZ-21" edge="1">
          <mxGeometry width="50" height="50" relative="1" as="geometry">
            <mxPoint x="5084" y="835" as="sourcePoint" />
            <mxPoint x="5257" y="852" as="targetPoint" />
            <Array as="points">
              <mxPoint x="5175" y="1133" />
              <mxPoint x="5258" y="1132" />
            </Array>
          </mxGeometry>
        </mxCell>
        <mxCell id="SsQ0BOoLg-oKRbzeftOZ-91" value="" style="endArrow=classic;html=1;rounded=0;" parent="1" edge="1">
          <mxGeometry width="50" height="50" relative="1" as="geometry">
            <mxPoint x="5259" y="707" as="sourcePoint" />
            <mxPoint x="5259" y="697" as="targetPoint" />
          </mxGeometry>
        </mxCell>
        <mxCell id="SsQ0BOoLg-oKRbzeftOZ-96" value="" style="endArrow=classic;html=1;rounded=0;" parent="1" edge="1">
          <mxGeometry width="50" height="50" relative="1" as="geometry">
            <mxPoint x="5259" y="698" as="sourcePoint" />
            <mxPoint x="4932.999019160584" y="698" as="targetPoint" />
          </mxGeometry>
        </mxCell>
        <mxCell id="SsQ0BOoLg-oKRbzeftOZ-99" value="" style="endArrow=none;html=1;rounded=0;" parent="1" edge="1">
          <mxGeometry width="50" height="50" relative="1" as="geometry">
            <mxPoint x="5049" y="1256" as="sourcePoint" />
            <mxPoint x="5048" y="859" as="targetPoint" />
          </mxGeometry>
        </mxCell>
        <mxCell id="SsQ0BOoLg-oKRbzeftOZ-100" value="" style="endArrow=classic;html=1;rounded=0;" parent="1" edge="1">
          <mxGeometry width="50" height="50" relative="1" as="geometry">
            <mxPoint x="5050" y="860" as="sourcePoint" />
            <mxPoint x="4935" y="860" as="targetPoint" />
          </mxGeometry>
        </mxCell>
        <mxCell id="SsQ0BOoLg-oKRbzeftOZ-101" value="" style="endArrow=none;html=1;rounded=0;entryX=0.5;entryY=1;entryDx=0;entryDy=0;" parent="1" target="SsQ0BOoLg-oKRbzeftOZ-7" edge="1">
          <mxGeometry width="50" height="50" relative="1" as="geometry">
            <mxPoint x="4936" y="450" as="sourcePoint" />
            <mxPoint x="4373" y="829" as="targetPoint" />
            <Array as="points">
              <mxPoint x="4105" y="454" />
              <mxPoint x="4109" y="859" />
              <mxPoint x="4371" y="855" />
            </Array>
          </mxGeometry>
        </mxCell>
        <mxCell id="Zx2KrxO4B_kwL_E8NJqR-2" value="Форма с игрой" style="shape=display;whiteSpace=wrap;html=1;fontSize=16;" parent="1" vertex="1">
          <mxGeometry x="4863" y="751" width="140" height="70" as="geometry" />
        </mxCell>
        <mxCell id="Zx2KrxO4B_kwL_E8NJqR-3" value="" style="endArrow=none;html=1;rounded=0;" parent="1" edge="1">
          <mxGeometry width="50" height="50" relative="1" as="geometry">
            <mxPoint x="4801" y="861" as="sourcePoint" />
            <mxPoint x="4934" y="860" as="targetPoint" />
          </mxGeometry>
        </mxCell>
        <mxCell id="Zx2KrxO4B_kwL_E8NJqR-4" value="Открытие уровней" style="rounded=0;whiteSpace=wrap;html=1;fontSize=16;" parent="1" vertex="1">
          <mxGeometry x="4740" y="1227" width="120" height="60" as="geometry" />
        </mxCell>
        <mxCell id="Zx2KrxO4B_kwL_E8NJqR-5" value="" style="endArrow=classic;html=1;rounded=0;entryX=0.5;entryY=1;entryDx=0;entryDy=0;" parent="1" target="Zx2KrxO4B_kwL_E8NJqR-4" edge="1">
          <mxGeometry width="50" height="50" relative="1" as="geometry">
            <mxPoint x="4800" y="1295" as="sourcePoint" />
            <mxPoint x="4871" y="1353" as="targetPoint" />
          </mxGeometry>
        </mxCell>
        <mxCell id="Zx2KrxO4B_kwL_E8NJqR-7" value="" style="endArrow=none;html=1;rounded=0;curved=1;" parent="1" edge="1">
          <mxGeometry width="50" height="50" relative="1" as="geometry">
            <mxPoint x="5258" y="853" as="sourcePoint" />
            <mxPoint x="5258" y="832" as="targetPoint" />
            <Array as="points">
              <mxPoint x="5248" y="851" />
              <mxPoint x="5243" y="842" />
              <mxPoint x="5248" y="834" />
            </Array>
          </mxGeometry>
        </mxCell>
        <mxCell id="Zx2KrxO4B_kwL_E8NJqR-8" value="" style="endArrow=none;html=1;rounded=0;" parent="1" edge="1">
          <mxGeometry width="50" height="50" relative="1" as="geometry">
            <mxPoint x="5257" y="832" as="sourcePoint" />
            <mxPoint x="5259" y="701" as="targetPoint" />
          </mxGeometry>
        </mxCell>
        <mxCell id="Zx2KrxO4B_kwL_E8NJqR-14" value="" style="edgeStyle=orthogonalEdgeStyle;rounded=0;orthogonalLoop=1;jettySize=auto;html=1;" parent="1" source="Zx2KrxO4B_kwL_E8NJqR-10" target="Zx2KrxO4B_kwL_E8NJqR-13" edge="1">
          <mxGeometry relative="1" as="geometry" />
        </mxCell>
        <mxCell id="Zx2KrxO4B_kwL_E8NJqR-10" value="Показать решение" style="shape=display;whiteSpace=wrap;html=1;fontSize=16;" parent="1" vertex="1">
          <mxGeometry x="4513" y="893" width="140" height="70" as="geometry" />
        </mxCell>
        <mxCell id="Zx2KrxO4B_kwL_E8NJqR-11" value="" style="endArrow=none;html=1;rounded=0;exitX=0;exitY=0;exitDx=70;exitDy=0;exitPerimeter=0;" parent="1" source="Zx2KrxO4B_kwL_E8NJqR-10" edge="1">
          <mxGeometry width="50" height="50" relative="1" as="geometry">
            <mxPoint x="4683" y="861" as="sourcePoint" />
            <mxPoint x="4583" y="839" as="targetPoint" />
          </mxGeometry>
        </mxCell>
        <mxCell id="Zx2KrxO4B_kwL_E8NJqR-12" value="" style="endArrow=classic;html=1;rounded=0;" parent="1" edge="1">
          <mxGeometry width="50" height="50" relative="1" as="geometry">
            <mxPoint x="4934" y="839" as="sourcePoint" />
            <mxPoint x="4579" y="839" as="targetPoint" />
          </mxGeometry>
        </mxCell>
        <mxCell id="Zx2KrxO4B_kwL_E8NJqR-13" value="Заполнение таблицы правильным решением" style="whiteSpace=wrap;html=1;fontSize=16;" parent="1" vertex="1">
          <mxGeometry x="4513" y="1030" width="140" height="70" as="geometry" />
        </mxCell>
      </root>
    </mxGraphModel>
  </diagram>
</mxfile>
